<?xml version="1.0" encoding="utf-8"?>
<!-- Generator: Adobe Illustrator 27.2.0, SVG Export Plug-In . SVG Version: 6.00 Build 0)  -->
<svg version="1.1" id="Layer_1" xmlns="http://www.w3.org/2000/svg" xmlns:xlink="http://www.w3.org/1999/xlink" x="0px" y="0px"
	 viewBox="0 0 160 50" style="enable-background:new 0 0 160 50;" xml:space="preserve">
<style type="text/css">
	.st0{fill:#FFFFFF;}
</style>
<circle class="st0" cx="9.5" cy="9.4" r="9.4"/>
<circle class="st0" cx="30.5" cy="9.4" r="9.4"/>
<circle class="st0" cx="52.7" cy="9.4" r="9.4"/>
<path class="st0" d="M15.9,34l7.3-0.1c-0.4,2.2-1.1,3.8-2,4.9s-2.1,2-3.5,2.6c-1.4,0.6-3.2,0.9-5.4,0.9c-2.1,0-3.9-0.2-5.3-0.6
	c-1.4-0.4-2.6-1-3.6-1.9c-1-0.9-1.8-1.9-2.4-3.1C0.3,35.5,0,33.9,0,31.9c0-2.1,0.3-3.8,1-5.1c0.5-1,1.2-1.9,2.1-2.7
	C4.1,23.3,5,22.7,6,22.3c1.5-0.6,3.4-0.9,5.7-0.9c3.3,0,5.8,0.6,7.5,1.8c1.7,1.2,2.9,3.2,3.6,6.1l-7.2,0c-0.2-0.9-0.6-1.5-1.2-1.9
	c-0.6-0.4-1.4-0.6-2.4-0.6c-1.3,0-2.3,0.5-3.1,1.4c-0.8,0.9-1.2,2.3-1.2,4.1c0,1.6,0.4,2.9,1.2,3.8c0.8,0.8,1.8,1.3,3,1.3
	c1,0,1.9-0.3,2.5-0.8C15,35.9,15.6,35.1,15.9,34z"/>
<path class="st0" d="M25.8,31.9c0-3,1-5.6,3.1-7.5s4.8-3,8.3-3c4,0,7,1.2,9.1,3.5c1.6,1.9,2.5,4.2,2.5,6.9c0,3.1-1,5.6-3.1,7.6
	c-2,2-4.9,3-8.5,3c-3.2,0-5.8-0.8-7.8-2.5C27,37.8,25.8,35.2,25.8,31.9z M33.4,31.9c0,1.8,0.4,3.1,1.1,3.9s1.6,1.3,2.7,1.3
	c1.1,0,2-0.4,2.7-1.3c0.7-0.8,1.1-2.2,1.1-4c0-1.7-0.4-3-1.1-3.9c-0.7-0.9-1.6-1.3-2.7-1.3c-1.1,0-2,0.4-2.8,1.3
	C33.8,28.8,33.4,30.1,33.4,31.9z"/>
<path class="st0" d="M52.5,21.9h7.2v2.9c1-1.2,2.1-2.1,3.1-2.6c1-0.5,2.3-0.8,3.8-0.8c1.6,0,2.8,0.3,3.8,0.9
	c0.9,0.6,1.7,1.4,2.3,2.5c1.2-1.3,2.3-2.2,3.3-2.7s2.2-0.7,3.7-0.7c2.2,0,3.8,0.6,5,1.9c1.2,1.3,1.8,3.3,1.8,6v12.5h-7.7V30.5
	c0-0.9-0.2-1.6-0.5-2c-0.5-0.7-1.2-1-1.9-1c-0.9,0-1.6,0.3-2.2,1s-0.8,1.7-0.8,3.1v10.3h-7.7v-11c0-0.9-0.1-1.5-0.2-1.8
	c-0.2-0.5-0.4-0.9-0.8-1.2c-0.4-0.3-0.9-0.5-1.4-0.5c-0.9,0-1.6,0.3-2.2,1s-0.8,1.8-0.8,3.3v10.2h-7.7V21.9z"/>
<path class="st0" d="M90,35.5l7.2,0c0.3,0.9,0.8,1.5,1.3,1.9c0.6,0.4,1.3,0.6,2.3,0.6c1,0,1.8-0.2,2.4-0.7c0.4-0.3,0.7-0.7,0.7-1.2
	c0-0.5-0.3-1-0.9-1.3c-0.4,0-1.5-0.1-3.3-0.4c-2.7-0.5-4.5-0.9-5.5-1.3c-1-0.4-1.9-1.1-2.6-2c-0.7-0.9-1.1-2.1-1.1-3.6
	c0-1.3,0.4-2.5,1.2-3.4c0.8-1,1.8-1.7,3.2-2.1c1.3-0.5,3.1-0.7,5.4-0.7c2.4,0,4.1,0.2,5.3,0.5c1.1,0.4,2.1,0.9,2.8,1.7
	c0.8,0.8,1.4,2,1.9,3.9l-7.3,0c-0.2-0.6-0.5-1.1-0.9-1.4c-0.6-0.4-1.3-0.6-2.2-0.6c-0.9,0-1.5,0.1-1.9,0.5c-0.4,0.3-0.6,0.7-0.6,1.1
	c0,0.7,0.2,1.2,0.8,1.5s1.6,0.5,3.3,0.7c2.6,0.3,4.4,0.7,5.7,1.2s2.2,1.2,2.8,2.2c0.7,1,1,1.9,1,2.8c0,1.2-0.3,2.3-1,3.4
	c-0.7,1.1-1.8,2-3.3,2.6s-3.5,1-6.1,1c-3.7,0-6.2-0.5-7.8-1.6C91,39.7,90.2,38,90,35.5z"/>
<path class="st0" d="M112.3,21.9h8.1l4.1,13.3l3.8-13.3h7.6l-7.9,21.4c-0.9,2.4-1.8,4.1-2.8,4.9c-1.3,1.2-3.4,1.8-6.1,1.8
	c-1.1,0-2.8-0.2-5.1-0.5l-0.6-5.3c1.1,0.3,2.3,0.5,3.7,0.5c0.9,0,1.6-0.2,2.2-0.6c0.6-0.4,1-1.2,1.4-2.2L112.3,21.9z"/>
<path class="st0" d="M137.1,35.5l7.2,0c0.3,0.9,0.8,1.5,1.3,1.9c0.6,0.4,1.3,0.6,2.3,0.6c1,0,1.8-0.2,2.4-0.7
	c0.4-0.3,0.7-0.7,0.7-1.2c0-0.5-0.3-1-0.9-1.3c-0.4,0-1.5-0.1-3.3-0.4c-2.7-0.5-4.5-0.9-5.5-1.3c-1-0.4-1.9-1.1-2.6-2
	c-0.7-0.9-1.1-2.1-1.1-3.6c0-1.3,0.4-2.5,1.1-3.4c0.8-1,1.8-1.7,3.2-2.1s3.1-0.7,5.4-0.7c2.4,0,4.1,0.2,5.3,0.5
	c1.1,0.4,2.1,0.9,2.8,1.7c0.8,0.8,1.4,2,1.9,3.9l-7.3,0c-0.2-0.6-0.5-1.1-0.9-1.4c-0.6-0.4-1.3-0.6-2.2-0.6c-0.9,0-1.5,0.1-1.9,0.5
	c-0.4,0.3-0.6,0.7-0.6,1.1c0,0.7,0.2,1.2,0.8,1.5s1.6,0.5,3.3,0.7c2.6,0.3,4.4,0.7,5.7,1.2c1.2,0.5,2.2,1.2,2.9,2.2
	c0.7,1,1,1.9,1,2.8c0,1.2-0.4,2.3-1,3.4c-0.7,1.1-1.8,2-3.3,2.6s-3.5,1-6.1,1c-3.6,0-6.2-0.5-7.8-1.6
	C138.1,39.7,137.3,38,137.1,35.5z"/>
</svg>
