<?xml version="1.0" encoding="utf-8"?>
<!-- Generator: Adobe Illustrator 27.2.0, SVG Export Plug-In . SVG Version: 6.00 Build 0)  -->
<svg version="1.1" id="Layer_1" xmlns="http://www.w3.org/2000/svg" xmlns:xlink="http://www.w3.org/1999/xlink" x="0px" y="0px"
	 viewBox="0 0 160 50" style="enable-background:new 0 0 160 50;" xml:space="preserve">
<style type="text/css">
	.st0{fill:#F50504;}
	.st1{fill:#F99D03;}
	.st2{fill:#014A97;}
	.st3{fill:#F75B18;}
</style>
<circle class="st0" cx="9.51" cy="9.39" r="9.39"/>
<circle class="st1" cx="30.53" cy="9.39" r="9.39"/>
<circle class="st2" cx="52.67" cy="9.39" r="9.39"/>
<path class="st2" d="M15.89,34.03l7.28-0.11c-0.4,2.15-1.06,3.77-1.98,4.88c-0.92,1.11-2.09,1.97-3.51,2.59
	c-1.42,0.61-3.23,0.92-5.43,0.92c-2.12,0-3.89-0.2-5.3-0.59c-1.41-0.4-2.63-1.04-3.64-1.92c-1.02-0.88-1.81-1.92-2.39-3.12
	c-0.58-1.19-0.87-2.77-0.87-4.74c0-2.06,0.35-3.77,1.05-5.14c0.51-1,1.22-1.9,2.11-2.7c0.89-0.8,1.81-1.39,2.75-1.78
	c1.49-0.61,3.41-0.92,5.74-0.92c3.26,0,5.75,0.58,7.46,1.75c1.71,1.17,2.91,3.19,3.6,6.06l-7.21,0.02c-0.23-0.85-0.64-1.5-1.23-1.93
	c-0.6-0.43-1.4-0.65-2.4-0.65c-1.27,0-2.29,0.45-3.08,1.36c-0.78,0.91-1.18,2.29-1.18,4.13c0,1.64,0.39,2.89,1.17,3.75
	c0.78,0.85,1.77,1.28,2.97,1.28c1,0,1.85-0.26,2.53-0.77C15.04,35.88,15.55,35.09,15.89,34.03z"/>
<path class="st2" d="M25.75,31.9c0-3.05,1.03-5.56,3.09-7.54c2.06-1.98,4.84-2.96,8.34-2.96c4,0,7.03,1.16,9.07,3.48
	c1.64,1.87,2.47,4.17,2.47,6.91c0,3.07-1.02,5.59-3.06,7.56c-2.04,1.96-4.86,2.95-8.46,2.95c-3.21,0-5.81-0.82-7.79-2.45
	C26.97,37.82,25.75,35.18,25.75,31.9z M33.43,31.88c0,1.78,0.36,3.1,1.08,3.95c0.72,0.85,1.63,1.28,2.72,1.28
	c1.1,0,2.01-0.42,2.72-1.26c0.71-0.84,1.06-2.19,1.06-4.05c0-1.73-0.36-3.02-1.07-3.87c-0.72-0.85-1.6-1.27-2.65-1.27
	c-1.12,0-2.04,0.43-2.77,1.29C33.8,28.82,33.43,30.12,33.43,31.88z"/>
<path class="st2" d="M52.46,21.85h7.15v2.92c1.03-1.22,2.07-2.08,3.12-2.6c1.05-0.51,2.31-0.77,3.79-0.77
	c1.59,0,2.85,0.28,3.78,0.85c0.93,0.56,1.69,1.41,2.28,2.52c1.2-1.3,2.3-2.19,3.29-2.66c0.99-0.47,2.21-0.71,3.67-0.71
	c2.15,0,3.82,0.64,5.03,1.91c1.2,1.27,1.81,3.27,1.81,5.98v12.55H78.7V30.45c0-0.9-0.18-1.57-0.53-2.01
	c-0.51-0.69-1.15-1.04-1.92-1.04c-0.9,0-1.63,0.33-2.18,0.98c-0.55,0.65-0.83,1.7-0.83,3.14v10.31h-7.68V30.83
	c0-0.88-0.05-1.47-0.15-1.79c-0.16-0.5-0.45-0.91-0.85-1.21c-0.4-0.31-0.87-0.46-1.41-0.46c-0.88,0-1.6,0.33-2.16,1
	c-0.56,0.67-0.85,1.76-0.85,3.28v10.2h-7.68V21.85z"/>
<path class="st3" d="M89.98,35.55l7.23,0.04c0.31,0.9,0.75,1.55,1.32,1.94c0.56,0.39,1.32,0.58,2.26,0.58
	c1.03,0,1.83-0.22,2.39-0.66c0.44-0.33,0.66-0.73,0.66-1.22c0-0.55-0.29-0.98-0.87-1.28c-0.41,0.04-1.51-0.1-3.29-0.41
	c-2.66-0.46-4.51-0.89-5.54-1.29c-1.04-0.4-1.91-1.06-2.62-2c-0.71-0.94-1.06-2.14-1.06-3.6c0-1.32,0.38-2.45,1.15-3.41
	c0.77-0.95,1.82-1.67,3.16-2.14c1.34-0.47,3.14-0.71,5.4-0.71c2.38,0,4.14,0.18,5.28,0.55c1.14,0.36,2.08,0.93,2.84,1.69
	c0.76,0.77,1.39,2.05,1.89,3.86l-7.27-0.04c-0.19-0.64-0.5-1.11-0.94-1.41c-0.6-0.4-1.33-0.6-2.18-0.6c-0.87,0-1.5,0.15-1.89,0.46
	c-0.4,0.31-0.59,0.68-0.59,1.12c0,0.74,0.25,1.24,0.75,1.49c0.5,0.25,1.59,0.48,3.28,0.68c2.55,0.29,4.44,0.69,5.68,1.2
	c1.24,0.51,2.19,1.25,2.85,2.2c0.66,0.95,0.99,1.88,0.99,2.77c0,1.15-0.35,2.28-1.04,3.37c-0.7,1.09-1.79,1.96-3.29,2.61
	c-1.5,0.65-3.54,0.97-6.13,0.97c-3.65,0-6.25-0.52-7.8-1.56C91.03,39.71,90.16,37.97,89.98,35.55z"/>
<path class="st3" d="M112.28,21.85h8.09l4.12,13.31l3.82-13.31h7.55l-7.92,21.36c-0.9,2.43-1.83,4.08-2.77,4.93
	c-1.33,1.2-3.36,1.81-6.08,1.81c-1.1,0-2.81-0.15-5.12-0.45l-0.6-5.35c1.1,0.35,2.33,0.53,3.69,0.53c0.9,0,1.63-0.21,2.19-0.62
	c0.56-0.41,1.03-1.15,1.42-2.22L112.28,21.85z"/>
<path class="st3" d="M137.07,35.55l7.23,0.04c0.31,0.9,0.75,1.55,1.32,1.94c0.56,0.39,1.32,0.58,2.26,0.58
	c1.03,0,1.83-0.22,2.39-0.66c0.44-0.33,0.66-0.73,0.66-1.22c0-0.55-0.29-0.98-0.87-1.28c-0.41,0.04-1.51-0.1-3.29-0.41
	c-2.66-0.46-4.51-0.89-5.54-1.29c-1.04-0.4-1.91-1.06-2.62-2c-0.71-0.94-1.06-2.14-1.06-3.6c0-1.32,0.38-2.45,1.15-3.41
	c0.77-0.95,1.82-1.67,3.16-2.14c1.34-0.47,3.14-0.71,5.4-0.71c2.38,0,4.14,0.18,5.28,0.55c1.14,0.36,2.08,0.93,2.84,1.69
	c0.76,0.77,1.39,2.05,1.89,3.86L150,27.46c-0.19-0.64-0.5-1.11-0.94-1.41c-0.6-0.4-1.33-0.6-2.18-0.6c-0.87,0-1.5,0.15-1.89,0.46
	c-0.4,0.31-0.59,0.68-0.59,1.12c0,0.74,0.25,1.24,0.75,1.49c0.5,0.25,1.59,0.48,3.28,0.68c2.55,0.29,4.44,0.69,5.68,1.2
	c1.24,0.51,2.19,1.25,2.85,2.2c0.66,0.95,0.99,1.88,0.99,2.77c0,1.15-0.35,2.28-1.04,3.37c-0.7,1.09-1.79,1.96-3.29,2.61
	c-1.5,0.65-3.54,0.97-6.13,0.97c-3.65,0-6.25-0.52-7.8-1.56C138.13,39.71,137.26,37.97,137.07,35.55z"/>
</svg>
